<?xml version="1.0" ?><svg version="1.1" viewBox="0 0 24 24" height="50px" width="50px" xmlns="http://www.w3.org/2000/svg" xmlns:sketch="//www.bohemiancoding.com/sketch/ns" xmlns:xlink="//www.w3.org/1999/xlink"><title/><desc/><defs/><g fill="none" fill-rule="evenodd" id="miu" stroke="none" stroke-width="1"><g id="Artboard-1" transform="translate(-435.000000, -443.000000)"><g id="slice" transform="translate(215.000000, 119.000000)"/><path d="M451,451.812818 C451,447.497918 448.518799,443.999999 443.5,444 C438.481201,444.000001 436,447.497918 436,451.812818 C436,456.127718 443.5,466 443.5,466 C443.5,466 451,456.127718 451,451.812818 Z M450,451.865427 C450,448.040857 447.628662,444.940431 443.5,444.94043 C439.371338,444.940429 437,448.040857 437,451.865427 C437,455.689998 443.5,464.44043 443.5,464.44043 C443.5,464.44043 450,455.689998 450,451.865427 Z M443.5,454.5 C445.709139,454.5 447.5,452.709139 447.5,450.5 C447.5,448.290861 445.709139,446.5 443.5,446.5 C441.290861,446.5 439.5,448.290861 439.5,450.5 C439.5,452.709139 441.290861,454.5 443.5,454.5 L443.5,454.5 Z" fill="#fff" id="map-location-pin-map-marker-outline-stroke"/></g></g></svg>